<?xml version="1.0" encoding="UTF-8"?>
<!DOCTYPE svg PUBLIC "-//W3C//DTD SVG 1.1//EN" "http://www.w3.org/Graphics/SVG/1.1/DTD/svg11.dtd">
<svg xmlns="http://www.w3.org/2000/svg" version="1.1" width="512px" height="512px" style="shape-rendering:geometricPrecision; text-rendering:geometricPrecision; image-rendering:optimizeQuality; fill-rule:evenodd; clip-rule:evenodd" xmlns:xlink="http://www.w3.org/1999/xlink">
<g><path style="opacity:0.946" fill="#000000" d="M 511.5,41.5 C 511.5,51.8333 511.5,62.1667 511.5,72.5C 509.99,73.8361 508.323,75.0027 506.5,76C 485.503,76.5 464.503,76.6666 443.5,76.5C 443.667,190.167 443.5,303.834 443,417.5C 435.458,442.369 418.625,454.035 392.5,452.5C 392.667,467.837 392.5,483.17 392,498.5C 387.104,504.506 381.604,505.006 375.5,500C 366.975,493.308 358.308,486.808 349.5,480.5C 339.974,487.859 330.308,495.026 320.5,502C 314.54,504.868 310.04,503.368 307,497.5C 306.5,482.504 306.333,467.504 306.5,452.5C 216.833,452.667 127.166,452.5 37.5,452C 17.5596,448.893 4.89291,437.727 -0.5,418.5C -0.5,408.167 -0.5,397.833 -0.5,387.5C 0.961599,386.542 2.29493,385.376 3.5,384C 24.8307,383.5 46.1641,383.333 67.5,383.5C 67.3333,269.833 67.5,156.166 68,42.5C 72.3768,22.7906 84.5435,11.2906 104.5,8C 228.167,7.33333 351.833,7.33333 475.5,8C 494.46,11.7965 506.46,22.9631 511.5,41.5 Z M 106.5,25.5 C 215.501,25.3333 324.501,25.5 433.5,26C 429.481,31.8793 426.981,38.3793 426,45.5C 425.667,168.5 425.333,291.5 425,414.5C 419.649,430.171 408.983,436.171 393,432.5C 392.333,412.833 392.333,393.167 393,373.5C 397.959,367.46 400.459,360.46 400.5,352.5C 410.224,342.565 412.058,331.232 406,318.5C 404.374,315.872 402.374,313.539 400,311.5C 399.573,292.575 390.073,282.908 371.5,282.5C 360.235,271.383 347.568,269.549 333.5,277C 331.65,279.018 329.65,280.851 327.5,282.5C 308.927,282.908 299.427,292.575 299,311.5C 289.296,320.864 286.962,331.864 292,344.5C 293.938,347.39 296.105,350.056 298.5,352.5C 298.541,360.46 301.041,367.46 306,373.5C 306.498,376.817 306.665,380.15 306.5,383.5C 232.833,383.5 159.167,383.5 85.5,383.5C 85.3333,270.833 85.5,158.166 86,45.5C 88.7654,34.5669 95.5987,27.9002 106.5,25.5 Z M 464.5,25.5 C 485.806,26.1448 495.473,37.1448 493.5,58.5C 476.833,58.5 460.167,58.5 443.5,58.5C 441.736,41.6554 448.736,30.6554 464.5,25.5 Z M 346.5,290.5 C 352.308,289.652 356.142,291.985 358,297.5C 362.272,301.639 367.272,302.639 373,300.5C 378.263,300.597 381.096,303.263 381.5,308.5C 379.936,312.616 379.769,316.616 381,320.5C 383.638,323.317 386.638,325.65 390,327.5C 392.019,330.918 391.853,334.251 389.5,337.5C 386.311,339.496 383.478,341.83 381,344.5C 379.769,348.384 379.936,352.384 381.5,356.5C 378.845,364.398 373.679,366.398 366,362.5C 363.485,363.115 361.152,364.115 359,365.5C 352.667,377.5 346.333,377.5 340,365.5C 337.848,364.115 335.515,363.115 333,362.5C 328.298,365.217 323.798,365.05 319.5,362C 318.152,360.426 317.486,358.593 317.5,356.5C 318.442,352.524 318.609,348.524 318,344.5C 315.522,341.83 312.689,339.496 309.5,337.5C 307.031,334.326 306.864,330.993 309,327.5C 312.246,325.521 315.246,323.188 318,320.5C 318.609,316.476 318.442,312.476 317.5,308.5C 317.549,304.896 319.216,302.396 322.5,301C 327.167,301 331.833,301 336.5,301C 340.187,297.755 343.52,294.255 346.5,290.5 Z M 324.5,382.5 C 325.873,382.343 327.207,382.51 328.5,383C 342.105,395.433 355.772,395.599 369.5,383.5C 371.045,382.548 372.712,382.215 374.5,382.5C 374.667,413.502 374.5,444.502 374,475.5C 367.411,470.789 360.911,465.955 354.5,461C 351.167,459 347.833,459 344.5,461C 338.309,466.025 331.976,470.858 325.5,475.5C 324.5,444.507 324.167,413.507 324.5,382.5 Z M 17.5,401.5 C 113.833,401.5 210.167,401.5 306.5,401.5C 306.5,412.5 306.5,423.5 306.5,434.5C 217.499,434.667 128.499,434.5 39.5,434C 22.5664,429.868 15.2331,419.035 17.5,401.5 Z"/></g>
<g><path style="opacity:0.938" fill="#000000" d="M 195.5,75.5 C 218.5,75.5 241.5,75.5 264.5,75.5C 264.5,81.5 264.5,87.5 264.5,93.5C 241.5,93.5 218.5,93.5 195.5,93.5C 195.5,87.5 195.5,81.5 195.5,75.5 Z"/></g>
<g><path style="opacity:0.925" fill="#000000" d="M 280.5,75.5 C 292.167,75.5 303.833,75.5 315.5,75.5C 315.5,81.5 315.5,87.5 315.5,93.5C 303.833,93.5 292.167,93.5 280.5,93.5C 280.5,87.5 280.5,81.5 280.5,75.5 Z"/></g>
<g><path style="opacity:0.941" fill="#000000" d="M 169.5,118.5 C 226.833,118.5 284.167,118.5 341.5,118.5C 341.5,124.5 341.5,130.5 341.5,136.5C 284.167,136.5 226.833,136.5 169.5,136.5C 169.5,130.5 169.5,124.5 169.5,118.5 Z"/></g>
<g><path style="opacity:0.941" fill="#000000" d="M 127.5,169.5 C 141.833,169.5 156.167,169.5 170.5,169.5C 170.5,175.5 170.5,181.5 170.5,187.5C 156.167,187.5 141.833,187.5 127.5,187.5C 127.5,181.5 127.5,175.5 127.5,169.5 Z"/></g>
<g><path style="opacity:0.945" fill="#000000" d="M 186.5,169.5 C 252.167,169.5 317.833,169.5 383.5,169.5C 383.5,175.5 383.5,181.5 383.5,187.5C 317.833,187.5 252.167,187.5 186.5,187.5C 186.5,181.5 186.5,175.5 186.5,169.5 Z"/></g>
<g><path style="opacity:0.947" fill="#000000" d="M 127.5,212.5 C 158.833,212.5 190.167,212.5 221.5,212.5C 221.5,218.5 221.5,224.5 221.5,230.5C 190.167,230.5 158.833,230.5 127.5,230.5C 127.5,224.5 127.5,218.5 127.5,212.5 Z"/></g>
<g><path style="opacity:0.942" fill="#000000" d="M 237.5,212.5 C 286.167,212.5 334.833,212.5 383.5,212.5C 383.5,218.5 383.5,224.5 383.5,230.5C 334.833,230.5 286.167,230.5 237.5,230.5C 237.5,224.5 237.5,218.5 237.5,212.5 Z"/></g>
<g><path style="opacity:0.946" fill="#000000" d="M 127.5,255.5 C 184.5,255.5 241.5,255.5 298.5,255.5C 298.5,261.5 298.5,267.5 298.5,273.5C 241.5,273.5 184.5,273.5 127.5,273.5C 127.5,267.5 127.5,261.5 127.5,255.5 Z"/></g>
<g><path style="opacity:0.942" fill="#000000" d="M 127.5,297.5 C 176.167,297.5 224.833,297.5 273.5,297.5C 273.5,303.5 273.5,309.5 273.5,315.5C 224.833,315.5 176.167,315.5 127.5,315.5C 127.5,309.5 127.5,303.5 127.5,297.5 Z"/></g>
</svg>
