<?xml version="1.0" encoding="UTF-8"?>
<!DOCTYPE svg PUBLIC "-//W3C//DTD SVG 1.1//EN" "http://www.w3.org/Graphics/SVG/1.1/DTD/svg11.dtd">
<svg xmlns="http://www.w3.org/2000/svg" version="1.1" width="512px" height="512px" style="shape-rendering:geometricPrecision; text-rendering:geometricPrecision; image-rendering:optimizeQuality; fill-rule:evenodd; clip-rule:evenodd" xmlns:xlink="http://www.w3.org/1999/xlink">
<g><path style="opacity:0.986" fill="#000000" d="M 211.5,7.5 C 240.835,7.33335 270.169,7.50002 299.5,8C 301.333,8.5 302.5,9.66667 303,11.5C 303.5,20.8274 303.666,30.1607 303.5,39.5C 354.501,39.3333 405.501,39.5 456.5,40C 472.667,44.1667 482.833,54.3333 487,70.5C 487.5,134.832 487.667,199.166 487.5,263.5C 491.514,263.334 495.514,263.501 499.5,264C 501.333,264.5 502.5,265.667 503,267.5C 503.667,333.5 503.667,399.5 503,465.5C 497.833,485.333 485.333,497.833 465.5,503C 325.5,503.667 185.5,503.667 45.5,503C 25.6667,497.833 13.1667,485.333 8,465.5C 7.33333,399.5 7.33333,333.5 8,267.5C 8.5,265.667 9.66667,264.5 11.5,264C 15.4862,263.501 19.4862,263.334 23.5,263.5C 23.3333,199.166 23.5,134.832 24,70.5C 28.1667,54.3333 38.3333,44.1667 54.5,40C 105.499,39.5 156.499,39.3333 207.5,39.5C 207.334,30.1607 207.5,20.8274 208,11.5C 208.69,9.64977 209.856,8.31643 211.5,7.5 Z M 223.5,23.5 C 244.833,23.5 266.167,23.5 287.5,23.5C 287.5,28.8333 287.5,34.1667 287.5,39.5C 266.167,39.5 244.833,39.5 223.5,39.5C 223.5,34.1667 223.5,28.8333 223.5,23.5 Z M 63.5,55.5 C 191.5,55.3333 319.5,55.5 447.5,56C 461.333,57.8333 469.167,65.6667 471,79.5C 471.5,140.832 471.667,202.166 471.5,263.5C 466.167,263.5 460.833,263.5 455.5,263.5C 455.667,200.832 455.5,138.166 455,75.5C 454.626,74.5838 454.126,73.7504 453.5,73C 387.581,71.8366 321.581,71.3366 255.5,71.5C 189.419,71.3366 123.419,71.8366 57.5,73C 56.8742,73.7504 56.3742,74.5838 56,75.5C 55.5,138.166 55.3333,200.832 55.5,263.5C 50.1667,263.5 44.8333,263.5 39.5,263.5C 39.3333,202.166 39.5,140.832 40,79.5C 42.0286,65.6393 49.862,57.6393 63.5,55.5 Z M 71.5,87.5 C 194.167,87.5 316.833,87.5 439.5,87.5C 439.5,146.167 439.5,204.833 439.5,263.5C 423.5,263.5 407.5,263.5 391.5,263.5C 391.333,249.496 391.5,235.496 392,221.5C 421.197,203.916 430.197,178.916 419,146.5C 411.606,131.223 399.773,121.223 383.5,116.5C 380.37,116.648 377.87,117.982 376,120.5C 375.667,135.833 375.333,151.167 375,166.5C 372.609,169.597 369.776,171.763 366.5,173C 364.333,170.833 362.167,168.667 360,166.5C 359.667,151.167 359.333,135.833 359,120.5C 354.343,115.701 349.177,115.201 343.5,119C 318.874,132.082 308.374,152.582 312,180.5C 315.805,199.114 326.139,212.781 343,221.5C 343.5,235.496 343.667,249.496 343.5,263.5C 327.5,263.5 311.5,263.5 295.5,263.5C 295.667,251.495 295.5,239.495 295,227.5C 294.5,225.667 293.333,224.5 291.5,224C 287.514,223.501 283.514,223.334 279.5,223.5C 279.333,208.163 279.5,192.83 280,177.5C 282.333,172.833 284.667,168.167 287,163.5C 287.667,150.167 287.667,136.833 287,123.5C 286.5,121.667 285.333,120.5 283.5,120C 264.833,119.333 246.167,119.333 227.5,120C 225.667,120.5 224.5,121.667 224,123.5C 223.333,136.833 223.333,150.167 224,163.5C 226.333,168.167 228.667,172.833 231,177.5C 231.5,192.83 231.667,208.163 231.5,223.5C 227.486,223.334 223.486,223.501 219.5,224C 217.667,224.5 216.5,225.667 216,227.5C 215.5,239.495 215.333,251.495 215.5,263.5C 199.5,263.5 183.5,263.5 167.5,263.5C 167.333,249.496 167.5,235.496 168,221.5C 197.197,203.916 206.197,178.916 195,146.5C 187.606,131.223 175.773,121.223 159.5,116.5C 156.37,116.648 153.87,117.982 152,120.5C 151.667,135.833 151.333,151.167 151,166.5C 148.609,169.597 145.776,171.763 142.5,173C 140.333,170.833 138.167,168.667 136,166.5C 135.667,151.167 135.333,135.833 135,120.5C 130.343,115.701 125.177,115.201 119.5,119C 94.8743,132.082 84.3743,152.582 88,180.5C 91.8054,199.114 102.139,212.781 119,221.5C 119.5,235.496 119.667,249.496 119.5,263.5C 103.5,263.5 87.5,263.5 71.5,263.5C 71.5,204.833 71.5,146.167 71.5,87.5 Z M 239.5,135.5 C 250.167,135.5 260.833,135.5 271.5,135.5C 273.541,148.527 271.041,160.527 264,171.5C 263.5,188.83 263.333,206.163 263.5,223.5C 258.167,223.5 252.833,223.5 247.5,223.5C 247.667,206.163 247.5,188.83 247,171.5C 239.959,160.527 237.459,148.527 239.5,135.5 Z M 118.5,139.5 C 119.331,150.993 119.831,162.659 120,174.5C 125.833,181.667 132.333,188.167 139.5,194C 143.533,195.04 147.199,194.374 150.5,192C 156.366,186.469 161.866,180.635 167,174.5C 167.333,162.833 167.667,151.167 168,139.5C 183.429,153.683 186.763,170.35 178,189.5C 171.949,198.54 163.783,205.04 153.5,209C 152.874,209.75 152.374,210.584 152,211.5C 151.5,228.83 151.333,246.163 151.5,263.5C 146.167,263.5 140.833,263.5 135.5,263.5C 135.667,246.163 135.5,228.83 135,211.5C 134.626,210.584 134.126,209.75 133.5,209C 108.777,199.055 99.944,181.221 107,155.5C 109.617,149.255 113.451,143.921 118.5,139.5 Z M 342.5,139.5 C 343.331,150.993 343.831,162.659 344,174.5C 349.833,181.667 356.333,188.167 363.5,194C 367.533,195.04 371.199,194.374 374.5,192C 380.366,186.469 385.866,180.635 391,174.5C 391.333,162.833 391.667,151.167 392,139.5C 407.429,153.683 410.763,170.35 402,189.5C 395.949,198.54 387.783,205.04 377.5,209C 376.874,209.75 376.374,210.584 376,211.5C 375.5,228.83 375.333,246.163 375.5,263.5C 370.167,263.5 364.833,263.5 359.5,263.5C 359.667,246.163 359.5,228.83 359,211.5C 358.626,210.584 358.126,209.75 357.5,209C 332.777,199.055 323.944,181.221 331,155.5C 333.617,149.255 337.451,143.921 342.5,139.5 Z M 231.5,239.5 C 247.5,239.5 263.5,239.5 279.5,239.5C 279.5,247.5 279.5,255.5 279.5,263.5C 263.5,263.5 247.5,263.5 231.5,263.5C 231.5,255.5 231.5,247.5 231.5,239.5 Z M 23.5,279.5 C 39.5,279.5 55.5,279.5 71.5,279.5C 71.3334,310.168 71.5,340.835 72,371.5C 72.5,373.333 73.6667,374.5 75.5,375C 99.5,375.667 123.5,375.667 147.5,375C 149.333,374.5 150.5,373.333 151,371.5C 151.5,340.835 151.667,310.168 151.5,279.5C 170.167,279.5 188.833,279.5 207.5,279.5C 207.032,294.93 207.532,310.263 209,325.5C 209.75,326.126 210.584,326.626 211.5,327C 226.167,327.167 240.833,327.333 255.5,327.5C 270.923,327.652 286.256,327.152 301.5,326C 302.126,325.25 302.626,324.416 303,323.5C 303.5,308.837 303.667,294.17 303.5,279.5C 322.167,279.5 340.833,279.5 359.5,279.5C 359.333,310.168 359.5,340.835 360,371.5C 360.5,373.333 361.667,374.5 363.5,375C 387.5,375.667 411.5,375.667 435.5,375C 437.333,374.5 438.5,373.333 439,371.5C 439.5,340.835 439.667,310.168 439.5,279.5C 455.5,279.5 471.5,279.5 487.5,279.5C 487.667,338.168 487.5,396.834 487,455.5C 485.167,474.667 474.667,485.167 455.5,487C 322.167,487.667 188.833,487.667 55.5,487C 36.3333,485.167 25.8333,474.667 24,455.5C 23.5,396.834 23.3333,338.168 23.5,279.5 Z M 87.5,279.5 C 103.5,279.5 119.5,279.5 135.5,279.5C 135.5,295.5 135.5,311.5 135.5,327.5C 119.5,327.5 103.5,327.5 87.5,327.5C 87.5,311.5 87.5,295.5 87.5,279.5 Z M 223.5,279.5 C 244.833,279.5 266.167,279.5 287.5,279.5C 287.5,290.167 287.5,300.833 287.5,311.5C 266.167,311.5 244.833,311.5 223.5,311.5C 223.5,300.833 223.5,290.167 223.5,279.5 Z M 375.5,279.5 C 391.5,279.5 407.5,279.5 423.5,279.5C 423.5,295.5 423.5,311.5 423.5,327.5C 407.5,327.5 391.5,327.5 375.5,327.5C 375.5,311.5 375.5,295.5 375.5,279.5 Z M 87.5,343.5 C 103.5,343.5 119.5,343.5 135.5,343.5C 135.5,348.833 135.5,354.167 135.5,359.5C 119.5,359.5 103.5,359.5 87.5,359.5C 87.5,354.167 87.5,348.833 87.5,343.5 Z M 375.5,343.5 C 391.5,343.5 407.5,343.5 423.5,343.5C 423.5,348.833 423.5,354.167 423.5,359.5C 407.5,359.5 391.5,359.5 375.5,359.5C 375.5,354.167 375.5,348.833 375.5,343.5 Z"/></g>
</svg>
