<?xml version="1.0" encoding="UTF-8"?>
<!DOCTYPE svg PUBLIC "-//W3C//DTD SVG 1.1//EN" "http://www.w3.org/Graphics/SVG/1.1/DTD/svg11.dtd">
<svg xmlns="http://www.w3.org/2000/svg" version="1.1" width="512px" height="512px" style="shape-rendering:geometricPrecision; text-rendering:geometricPrecision; image-rendering:optimizeQuality; fill-rule:evenodd; clip-rule:evenodd" xmlns:xlink="http://www.w3.org/1999/xlink">
<g><path style="opacity:0.934" fill="#000000" d="M 251.5,40.5 C 293.169,42.3312 313.003,63.9979 311,105.5C 306.753,129.191 293.919,146.357 272.5,157C 268.943,158.408 265.276,159.408 261.5,160C 275.161,161.292 288.827,162.625 302.5,164C 332.705,169.537 352.205,187.037 361,216.5C 365.539,251.309 370.039,286.142 374.5,321C 373.924,329.588 369.591,332.588 361.5,330C 360.333,328.833 359.167,327.667 358,326.5C 352.934,294.306 348.934,261.972 346,229.5C 339.699,197.54 320.199,181.04 287.5,180C 258.692,177.37 230.025,178.37 201.5,183C 179.906,190.653 167.073,205.82 163,228.5C 160.065,260.915 156.398,293.248 152,325.5C 148.984,331.372 144.484,332.872 138.5,330C 137.299,329.097 136.465,327.931 136,326.5C 135.333,322.167 135.333,317.833 136,313.5C 139.846,283.22 143.179,252.887 146,222.5C 153.075,189.424 173.242,169.924 206.5,164C 219.956,162.769 233.289,161.436 246.5,160C 222.799,153.299 207.299,138.133 200,114.5C 192,85.1345 200.833,62.6345 226.5,47C 234.621,43.4834 242.955,41.3167 251.5,40.5 Z M 246.5,58.5 C 266.039,56.0453 280.872,63.0453 291,79.5C 297.884,103.848 291.051,123.348 270.5,138C 254.876,146.077 241.043,143.577 229,130.5C 215.672,115.528 212.005,98.5277 218,79.5C 224.377,68.2313 233.877,61.2313 246.5,58.5 Z"/></g>
<g><path style="opacity:0.929" fill="#000000" d="M 191.5,231.5 C 199.193,229.835 203.526,232.835 204.5,240.5C 202.239,268.817 200.073,297.15 198,325.5C 193.449,332.471 188.116,333.138 182,327.5C 181.399,325.863 180.899,324.197 180.5,322.5C 182.761,294.183 184.927,265.85 187,237.5C 187.804,234.854 189.304,232.854 191.5,231.5 Z"/></g>
<g><path style="opacity:0.931" fill="#000000" d="M 309.5,231.5 C 315.991,229.845 320.158,232.178 322,238.5C 323.952,264.992 325.785,291.492 327.5,318C 329.292,325.608 326.458,330.108 319,331.5C 312.02,329.566 309.02,324.899 310,317.5C 307.889,290.504 306.222,263.504 305,236.5C 306.025,234.313 307.525,232.646 309.5,231.5 Z"/></g>
<g><path style="opacity:0.935" fill="#000000" d="M 253.5,289.5 C 257.31,289.379 260.477,290.712 263,293.5C 270.895,310.289 279.061,326.956 287.5,343.5C 306.817,346.712 326.15,349.879 345.5,353C 349.788,356.771 350.621,361.271 348,366.5C 334.015,379.318 320.515,392.652 307.5,406.5C 310.941,424.815 314.275,443.148 317.5,461.5C 316.833,466.833 313.833,469.833 308.5,470.5C 290.438,462.302 272.771,453.302 255.5,443.5C 238.234,453.3 220.567,462.3 202.5,470.5C 197.167,469.833 194.167,466.833 193.5,461.5C 196.728,443.134 200.061,424.8 203.5,406.5C 189.527,392.605 175.693,378.605 162,364.5C 160.557,359.788 161.723,355.955 165.5,353C 184.88,350.065 204.213,346.898 223.5,343.5C 231.939,326.956 240.105,310.289 248,293.5C 249.5,291.531 251.333,290.198 253.5,289.5 Z M 254.5,319.5 C 255.376,319.369 256.043,319.702 256.5,320.5C 262.061,332.622 267.894,344.622 274,356.5C 275.167,357.667 276.333,358.833 277.5,360C 292.127,362.549 306.794,364.882 321.5,367C 310.637,377.529 300.137,388.363 290,399.5C 291.13,414.115 293.296,428.615 296.5,443C 296.167,443.5 295.833,444 295.5,444.5C 282.409,437.288 269.076,430.621 255.5,424.5C 241.924,430.621 228.591,437.288 215.5,444.5C 216.544,431.881 218.377,419.214 221,406.5C 221.667,404.167 221.667,401.833 221,399.5C 210.863,388.363 200.363,377.529 189.5,367C 204.206,364.882 218.873,362.549 233.5,360C 234.667,358.833 235.833,357.667 237,356.5C 242.845,344.145 248.678,331.812 254.5,319.5 Z"/></g>
<g><path style="opacity:0.936" fill="#000000" d="M 90.5,330.5 C 95.1264,329.7 98.9597,331.034 102,334.5C 108.106,346.378 113.939,358.378 119.5,370.5C 133.78,373.213 148.113,375.713 162.5,378C 167.957,381.96 168.791,386.793 165,392.5C 155.363,401.136 146.03,410.136 137,419.5C 138.173,433.214 140.007,446.881 142.5,460.5C 142.428,466.079 139.595,469.412 134,470.5C 120.647,464.24 107.48,457.573 94.5,450.5C 81.4092,457.712 68.0759,464.379 54.5,470.5C 49.1667,469.833 46.1667,466.833 45.5,461.5C 48.4334,447.57 50.6,433.57 52,419.5C 41.3333,410.167 31.3333,400.167 22,389.5C 20.703,384.883 21.8697,381.05 25.5,378C 39.8546,375.774 54.1879,373.441 68.5,371C 74.7332,359.367 80.5665,347.534 86,335.5C 87.3657,333.638 88.8657,331.972 90.5,330.5 Z M 93.5,359.5 C 98.4174,366.998 102.584,374.998 106,383.5C 107.167,384.667 108.333,385.833 109.5,387C 119.41,389.13 129.41,390.797 139.5,392C 131.941,399.223 124.774,406.723 118,414.5C 118.954,424.922 120.287,435.256 122,445.5C 113.041,440.021 103.708,435.354 94,431.5C 85.0824,435.565 76.2491,439.898 67.5,444.5C 67.1667,444 66.8333,443.5 66.5,443C 68.9251,433.29 70.0918,423.457 70,413.5C 63.5316,406.03 56.6983,398.864 49.5,392C 59.5596,390.611 69.5596,388.944 79.5,387C 85.358,378.451 90.0246,369.284 93.5,359.5 Z"/></g>
<g><path style="opacity:0.937" fill="#000000" d="M 413.5,330.5 C 418.384,329.861 422.217,331.527 425,335.5C 430.433,347.534 436.267,359.367 442.5,371C 456.833,373.333 471.167,375.667 485.5,378C 489.671,381.854 490.504,386.354 488,391.5C 478.637,401.197 468.97,410.53 459,419.5C 460.616,433.533 462.783,447.533 465.5,461.5C 464.838,466.829 461.838,469.829 456.5,470.5C 442.929,464.381 429.596,457.715 416.5,450.5C 403.52,457.573 390.353,464.24 377,470.5C 371.643,469.482 368.81,466.315 368.5,461C 370.3,447.532 372.633,434.199 375.5,421C 364.637,410.471 354.137,399.637 344,388.5C 343.181,383.974 344.681,380.474 348.5,378C 362.905,375.824 377.238,373.324 391.5,370.5C 397.606,358.622 403.439,346.622 409,334.5C 410.397,332.93 411.897,331.596 413.5,330.5 Z M 416.5,359.5 C 420.822,368.973 425.822,378.14 431.5,387C 441.44,388.944 451.44,390.611 461.5,392C 454.302,398.864 447.468,406.03 441,413.5C 440.853,423.296 442.02,432.962 444.5,442.5C 444.167,443.167 443.833,443.833 443.5,444.5C 434.992,439.496 426.159,435.163 417,431.5C 407.292,435.354 397.959,440.021 389,445.5C 390.713,435.256 392.046,424.922 393,414.5C 386.226,406.723 379.059,399.223 371.5,392C 381.59,390.797 391.59,389.13 401.5,387C 402.667,385.833 403.833,384.667 405,383.5C 408.574,375.352 412.408,367.352 416.5,359.5 Z"/></g>
</svg>
