<?xml version="1.0" encoding="UTF-8"?>
<!DOCTYPE svg PUBLIC "-//W3C//DTD SVG 1.1//EN" "http://www.w3.org/Graphics/SVG/1.1/DTD/svg11.dtd">
<svg xmlns="http://www.w3.org/2000/svg" version="1.1" width="512px" height="512px" style="shape-rendering:geometricPrecision; text-rendering:geometricPrecision; image-rendering:optimizeQuality; fill-rule:evenodd; clip-rule:evenodd" xmlns:xlink="http://www.w3.org/1999/xlink">
<g><path style="opacity:0.922" fill="#000000" d="M 266.5,67.5 C 337.167,67.3333 407.834,67.5 478.5,68C 493.256,71.0899 502.422,79.9232 506,94.5C 506.667,143.833 506.667,193.167 506,242.5C 499.633,261.35 486.466,270.016 466.5,268.5C 466.667,279.838 466.5,291.172 466,302.5C 463.441,305.349 460.274,306.183 456.5,305C 434.5,293 412.5,281 390.5,269C 360.168,268.5 329.835,268.333 299.5,268.5C 299.667,305.502 299.5,342.502 299,379.5C 295.164,395.002 285.331,403.836 269.5,406C 228.5,406.333 187.5,406.667 146.5,407C 123.845,419.577 101.011,431.743 78,443.5C 76.1049,443.385 74.4382,442.718 73,441.5C 72.5001,429.838 72.3335,418.171 72.5,406.5C 47.1113,407.11 33.4446,394.776 31.5,369.5C 23.16,369.666 14.8267,369.5 6.5,369C 6,368.5 5.5,368 5,367.5C 4.33333,326.5 4.33333,285.5 5,244.5C 5.75044,243.874 6.58377,243.374 7.5,243C 15.4931,242.5 23.4931,242.334 31.5,242.5C 31.1126,225.757 38.446,213.923 53.5,207C 71.778,205.553 90.1113,205.053 108.5,205.5C 110.527,195.724 113.027,186.057 116,176.5C 128.996,168.107 140.996,169.44 152,180.5C 156.932,188.078 158.765,196.411 157.5,205.5C 184.5,205.5 211.5,205.5 238.5,205.5C 238.333,168.832 238.5,132.165 239,95.5C 242.348,80.32 251.514,70.9867 266.5,67.5 Z M 270.5,78.5 C 338.501,78.3333 406.501,78.5 474.5,79C 485.132,80.9661 491.966,87.1327 495,97.5C 495.667,144.5 495.667,191.5 495,238.5C 492.258,248.622 485.758,254.789 475.5,257C 469.5,257.333 463.5,257.667 457.5,258C 456.667,258.833 455.833,259.667 455,260.5C 454.832,270.184 454.332,279.851 453.5,289.5C 434.007,279.254 414.674,268.754 395.5,258C 363.502,257.5 331.502,257.333 299.5,257.5C 299.666,248.827 299.5,240.16 299,231.5C 295.751,219.917 288.585,211.75 277.5,207C 268.234,205.614 258.9,205.114 249.5,205.5C 249.333,170.498 249.5,135.498 250,100.5C 251.907,88.4306 258.74,81.0973 270.5,78.5 Z M 128.5,182.5 C 139.506,181.838 145.506,187.005 146.5,198C 142.236,215.221 137.736,232.387 133,249.5C 131.621,253.475 132.787,256.309 136.5,258C 158.5,258.333 180.5,258.667 202.5,259C 207.364,263.035 207.698,267.368 203.5,272C 197.275,273.251 190.942,273.917 184.5,274C 180.5,277.333 180.5,280.667 184.5,284C 189.5,284.333 194.5,284.667 199.5,285C 205.341,286.176 207.507,289.676 206,295.5C 205.535,296.931 204.701,298.097 203.5,299C 197.247,300.204 190.914,300.871 184.5,301C 180.5,304.333 180.5,307.667 184.5,311C 190.167,311.333 195.833,311.667 201.5,312C 206.916,315.203 207.916,319.536 204.5,325C 198.61,326.245 192.61,326.912 186.5,327C 180.77,329.605 180.103,333.272 184.5,338C 190.5,338.333 196.5,338.667 202.5,339C 207.833,343.667 207.833,348.333 202.5,353C 166.5,353.667 130.5,353.667 94.5,353C 88.6192,351.393 83.2859,348.726 78.5,345C 75.1832,344.502 71.8499,344.335 68.5,344.5C 68.5,318.833 68.5,293.167 68.5,267.5C 72.9671,267.867 77.3004,267.367 81.5,266C 90.2336,260.602 98.4003,254.435 106,247.5C 108.527,243.779 110.527,239.779 112,235.5C 116.818,218.227 121.318,200.894 125.5,183.5C 126.791,183.737 127.791,183.404 128.5,182.5 Z M 328.5,214.5 C 330.54,217.038 333.206,218.871 336.5,220C 334.226,222.344 333.059,225.178 333,228.5C 330.333,227.167 327.667,227.167 325,228.5C 324.22,225.488 323.053,222.655 321.5,220C 324.595,219.065 326.929,217.231 328.5,214.5 Z M 387.5,214.5 C 389.736,216.893 392.403,218.727 395.5,220C 394.133,222.672 393.133,225.505 392.5,228.5C 389.833,227.167 387.167,227.167 384.5,228.5C 383.959,225.266 382.626,222.433 380.5,220C 384.072,219.568 386.405,217.735 387.5,214.5 Z M 449.5,214.5 C 451.865,216.86 454.532,218.86 457.5,220.5C 456.103,222.982 455.269,225.648 455,228.5C 452.199,227.205 449.366,227.205 446.5,228.5C 445.919,225.625 444.919,222.958 443.5,220.5C 444.665,219.416 445.998,218.583 447.5,218C 448.823,217.184 449.489,216.017 449.5,214.5 Z M 61.5,216.5 C 75.8333,216.5 90.1667,216.5 104.5,216.5C 103.556,225.499 100.723,233.832 96,241.5C 89.7614,246.37 83.2614,250.87 76.5,255C 73.854,255.497 71.1873,255.664 68.5,255.5C 68.7935,251.563 68.4601,247.73 67.5,244C 59.2691,242.727 50.9358,242.06 42.5,242C 43.1675,229.125 49.5009,220.625 61.5,216.5 Z M 153.5,216.5 C 192.501,216.333 231.501,216.5 270.5,217C 280.112,219.611 285.945,225.778 288,235.5C 288.667,282.167 288.667,328.833 288,375.5C 285.909,385.257 280.075,391.423 270.5,394C 228.5,394.333 186.5,394.667 144.5,395C 124.374,405.632 104.374,416.466 84.5,427.5C 83.6678,417.517 83.1678,407.517 83,397.5C 82.0975,396.299 80.9308,395.465 79.5,395C 73.1667,394.667 66.8333,394.333 60.5,394C 49.4253,390.088 43.4253,382.254 42.5,370.5C 50.4793,369.668 58.4793,369.168 66.5,369C 67,368.5 67.5,368 68,367.5C 68.4986,363.848 68.6653,360.182 68.5,356.5C 70.8568,356.337 73.1902,356.503 75.5,357C 81.3475,361.618 88.0142,364.285 95.5,365C 131.167,365.667 166.833,365.667 202.5,365C 216.797,360.237 221.297,350.737 216,336.5C 214.916,335.335 214.083,334.002 213.5,332.5C 220.167,323.833 220.167,315.167 213.5,306.5C 220.167,297.5 220.167,288.5 213.5,279.5C 220.607,269.426 219.94,259.926 211.5,251C 209.5,250 207.5,249 205.5,248C 185.5,247.667 165.5,247.333 145.5,247C 148.712,236.987 151.378,226.82 153.5,216.5 Z M 15.5,253.5 C 29.5,253.5 43.5,253.5 57.5,253.5C 57.5,288.5 57.5,323.5 57.5,358.5C 43.5,358.5 29.5,358.5 15.5,358.5C 15.5,323.5 15.5,288.5 15.5,253.5 Z"/></g>
<g><path style="opacity:0.933" fill="#000000" d="M 376.5,94.5 C 407.502,94.3334 438.502,94.5 469.5,95C 471.91,95.7579 472.91,97.4246 472.5,100C 472.646,102.034 471.98,103.701 470.5,105C 438.833,105.667 407.167,105.667 375.5,105C 372.811,101.241 373.145,97.7411 376.5,94.5 Z"/></g>
<g><path style="opacity:0.869" fill="#000000" d="M 275.5,121.5 C 340.168,121.333 404.834,121.5 469.5,122C 473.187,124.398 474.021,127.565 472,131.5C 470.933,132.191 469.766,132.691 468.5,133C 404.5,133.667 340.5,133.667 276.5,133C 271.531,129.66 271.197,125.827 275.5,121.5 Z"/></g>
<g><path style="opacity:0.869" fill="#000000" d="M 276.5,148.5 C 340.834,148.333 405.168,148.5 469.5,149C 474.833,152.667 474.833,156.333 469.5,160C 405.167,160.667 340.833,160.667 276.5,160C 272.787,158.309 271.621,155.475 273,151.5C 274.145,150.364 275.312,149.364 276.5,148.5 Z"/></g>
<g><path style="opacity:0.871" fill="#000000" d="M 276.5,175.5 C 340.834,175.333 405.168,175.5 469.5,176C 474.833,179.667 474.833,183.333 469.5,187C 404.833,187.667 340.167,187.667 275.5,187C 273.09,186.242 272.09,184.575 272.5,182C 272.434,178.913 273.768,176.746 276.5,175.5 Z"/></g>
<g><path style="opacity:0.908" fill="#000000" d="M 324.5,199.5 C 331.6,198.047 336.267,200.714 338.5,207.5C 352.27,209.683 354.77,216.016 346,226.5C 348.237,240.768 342.737,245.101 329.5,239.5C 316.241,245.421 310.408,241.088 312,226.5C 303.181,216.64 305.348,210.473 318.5,208C 320.387,205.05 322.387,202.216 324.5,199.5 Z M 328.5,214.5 C 326.929,217.231 324.595,219.065 321.5,220C 323.053,222.655 324.22,225.488 325,228.5C 327.667,227.167 330.333,227.167 333,228.5C 333.059,225.178 334.226,222.344 336.5,220C 333.206,218.871 330.54,217.038 328.5,214.5 Z"/></g>
<g><path style="opacity:0.906" fill="#000000" d="M 384.5,199.5 C 387.187,199.336 389.854,199.503 392.5,200C 394.743,202.488 396.743,205.154 398.5,208C 401.167,208.667 403.833,209.333 406.5,210C 408.333,210.5 409.5,211.667 410,213.5C 410.667,216.167 410.667,218.833 410,221.5C 404.833,225.534 403.166,230.867 405,237.5C 404.5,239.333 403.333,240.5 401.5,241C 397.035,241.734 392.701,241.234 388.5,239.5C 376.433,245.651 371.1,242.151 372.5,229C 361.801,218.296 363.801,211.129 378.5,207.5C 380.171,204.508 382.171,201.841 384.5,199.5 Z M 387.5,214.5 C 386.405,217.735 384.072,219.568 380.5,220C 382.626,222.433 383.959,225.266 384.5,228.5C 387.167,227.167 389.833,227.167 392.5,228.5C 393.133,225.505 394.133,222.672 395.5,220C 392.403,218.727 389.736,216.893 387.5,214.5 Z"/></g>
<g><path style="opacity:0.906" fill="#000000" d="M 446.5,199.5 C 453.524,198.343 458.191,201.177 460.5,208C 474.016,209.895 476.516,216.061 468,226.5C 469.84,240.66 464.174,244.994 451,239.5C 438.42,245.251 432.753,241.251 434,227.5C 424.927,217.251 427.093,210.751 440.5,208C 441.942,204.732 443.942,201.899 446.5,199.5 Z M 449.5,214.5 C 449.489,216.017 448.823,217.184 447.5,218C 445.998,218.583 444.665,219.416 443.5,220.5C 444.919,222.958 445.919,225.625 446.5,228.5C 449.366,227.205 452.199,227.205 455,228.5C 455.269,225.648 456.103,222.982 457.5,220.5C 454.532,218.86 451.865,216.86 449.5,214.5 Z"/></g>
</svg>
