<?xml version="1.0" encoding="UTF-8"?>
<!DOCTYPE svg PUBLIC "-//W3C//DTD SVG 1.1//EN" "http://www.w3.org/Graphics/SVG/1.1/DTD/svg11.dtd">
<svg xmlns="http://www.w3.org/2000/svg" version="1.1" width="512px" height="512px" style="shape-rendering:geometricPrecision; text-rendering:geometricPrecision; image-rendering:optimizeQuality; fill-rule:evenodd; clip-rule:evenodd" xmlns:xlink="http://www.w3.org/1999/xlink">
<g><path style="opacity:0.986" fill="#000000" d="M 511.5,216.5 C 511.5,285.167 511.5,353.833 511.5,422.5C 509.989,426.113 507.322,428.613 503.5,430C 447.83,430.167 392.164,430.667 336.5,431.5C 324.022,447.145 311.356,462.645 298.5,478C 293.32,480.851 287.987,481.185 282.5,479C 271.305,463.305 260.305,447.471 249.5,431.5C 230.175,430.667 210.842,430.167 191.5,430C 187.667,428.833 185.167,426.333 184,422.5C 183.5,365.501 183.333,308.501 183.5,251.5C 173.145,251.168 162.812,251.501 152.5,252.5C 139.689,268.479 126.689,284.312 113.5,300C 107.729,302.306 102.229,301.806 97,298.5C 87.0296,283.031 76.863,267.698 66.5,252.5C 46.8418,251.667 27.1751,251.167 7.5,251C 3.64987,249.647 0.983199,247.147 -0.5,243.5C -0.5,175.167 -0.5,106.833 -0.5,38.5C 0.983199,34.8532 3.64987,32.3532 7.5,31C 111.5,30.3333 215.5,30.3333 319.5,31C 323.333,32.1667 325.833,34.6667 327,38.5C 327.5,95.1657 327.667,151.832 327.5,208.5C 386.168,208.333 444.834,208.5 503.5,209C 507.35,210.353 510.017,212.853 511.5,216.5 Z M 13.5,44.5 C 113.5,44.5 213.5,44.5 313.5,44.5C 313.5,108.833 313.5,173.167 313.5,237.5C 257.499,237.333 201.499,237.5 145.5,238C 132.372,253.114 119.372,268.28 106.5,283.5C 95.9564,268.246 85.2897,253.079 74.5,238C 54.1694,237.5 33.8361,237.333 13.5,237.5C 13.5,173.167 13.5,108.833 13.5,44.5 Z M 327.5,222.5 C 384.167,222.5 440.833,222.5 497.5,222.5C 497.5,287.167 497.5,351.833 497.5,416.5C 441.499,416.333 385.499,416.5 329.5,417C 316.372,432.114 303.372,447.28 290.5,462.5C 280.52,449.22 271.02,435.553 262,421.5C 260.5,420 259,418.5 257.5,417C 237.503,416.5 217.503,416.333 197.5,416.5C 197.5,361.5 197.5,306.5 197.5,251.5C 238.168,251.667 278.835,251.5 319.5,251C 323.237,249.719 325.737,247.219 327,243.5C 327.5,236.508 327.666,229.508 327.5,222.5 Z"/></g>
<g><path style="opacity:0.994" fill="#000000" d="M 55.5,85.5 C 122.167,85.3333 188.834,85.5 255.5,86C 259.5,90.3333 259.5,94.6667 255.5,99C 188.833,99.6667 122.167,99.6667 55.5,99C 51.5413,94.5015 51.5413,90.0015 55.5,85.5 Z"/></g>
<g><path style="opacity:0.994" fill="#000000" d="M 55.5,117.5 C 122.167,117.333 188.834,117.5 255.5,118C 259.5,122.333 259.5,126.667 255.5,131C 188.833,131.667 122.167,131.667 55.5,131C 51.5413,126.501 51.5413,122.001 55.5,117.5 Z"/></g>
<g><path style="opacity:0.993" fill="#000000" d="M 91.5,150.5 C 146.168,150.333 200.834,150.5 255.5,151C 259.5,155.333 259.5,159.667 255.5,164C 200.833,164.667 146.167,164.667 91.5,164C 87.5413,159.501 87.5413,155.001 91.5,150.5 Z"/></g>
<g><path style="opacity:0.989" fill="#000000" d="M 150.5,183.5 C 185.502,183.333 220.502,183.5 255.5,184C 259.5,188.333 259.5,192.667 255.5,197C 220.5,197.667 185.5,197.667 150.5,197C 146.541,192.501 146.541,188.001 150.5,183.5 Z"/></g>
<g><path style="opacity:0.994" fill="#000000" d="M 247.5,263.5 C 314.167,263.333 380.834,263.5 447.5,264C 451.5,268.333 451.5,272.667 447.5,277C 380.833,277.667 314.167,277.667 247.5,277C 243.541,272.501 243.541,268.001 247.5,263.5 Z"/></g>
<g><path style="opacity:0.994" fill="#000000" d="M 247.5,296.5 C 314.167,296.333 380.834,296.5 447.5,297C 451.5,301.333 451.5,305.667 447.5,310C 380.833,310.667 314.167,310.667 247.5,310C 243.541,305.501 243.541,301.001 247.5,296.5 Z"/></g>
<g><path style="opacity:0.993" fill="#000000" d="M 283.5,328.5 C 338.168,328.333 392.834,328.5 447.5,329C 451.5,333.333 451.5,337.667 447.5,342C 392.833,342.667 338.167,342.667 283.5,342C 279.541,337.501 279.541,333.001 283.5,328.5 Z"/></g>
<g><path style="opacity:0.989" fill="#000000" d="M 341.5,361.5 C 376.835,361.333 412.168,361.5 447.5,362C 451.5,366.333 451.5,370.667 447.5,375C 412.167,375.667 376.833,375.667 341.5,375C 337.541,370.501 337.541,366.001 341.5,361.5 Z"/></g>
</svg>
