<?xml version="1.0" encoding="UTF-8"?>
<!DOCTYPE svg PUBLIC "-//W3C//DTD SVG 1.1//EN" "http://www.w3.org/Graphics/SVG/1.1/DTD/svg11.dtd">
<svg xmlns="http://www.w3.org/2000/svg" version="1.1" width="512px" height="512px" style="shape-rendering:geometricPrecision; text-rendering:geometricPrecision; image-rendering:optimizeQuality; fill-rule:evenodd; clip-rule:evenodd" xmlns:xlink="http://www.w3.org/1999/xlink">
<g><path style="opacity:0.936" fill="#000000" d="M 162.5,-0.5 C 171.833,-0.5 181.167,-0.5 190.5,-0.5C 235.054,9.22246 261.554,36.5558 270,81.5C 270.333,111.5 270.667,141.5 271,171.5C 287.948,180.678 292.281,194.012 284,211.5C 272.691,223.957 259.858,225.79 245.5,217C 237.448,209.508 234.615,200.342 237,189.5C 239.352,180.649 244.852,174.983 253.5,172.5C 253.667,142.831 253.5,113.165 253,83.5C 246.974,51.1484 228.474,29.6484 197.5,19C 157.37,10.6945 127.203,24.1945 107,59.5C 103.585,66.8256 101.251,74.4923 100,82.5C 99.5,112.498 99.3334,142.498 99.5,172.5C 108.148,174.983 113.648,180.649 116,189.5C 117.515,214.32 106.015,224.82 81.5,221C 64.602,211.917 60.4353,198.75 69,181.5C 72.4782,177.018 76.8115,173.684 82,171.5C 82.3333,141.167 82.6667,110.833 83,80.5C 91.935,36.0664 118.435,9.06639 162.5,-0.5 Z M 88.5,187.5 C 96.472,187.636 99.972,191.636 99,199.5C 95.9598,205.368 91.4598,206.868 85.5,204C 79.7373,197.224 80.7373,191.724 88.5,187.5 Z M 259.5,187.5 C 266.3,187.134 270.3,190.3 271.5,197C 269.187,204.156 264.521,206.49 257.5,204C 251.799,197.711 252.465,192.211 259.5,187.5 Z"/></g>
<g><path style="opacity:0.941" fill="#000000" d="M 29.5,149.5 C 42.8333,149.5 56.1667,149.5 69.5,149.5C 69.5,155.167 69.5,160.833 69.5,166.5C 61.0608,165.884 52.8942,166.551 45,168.5C 38.3319,276.523 31.4986,384.523 24.5,492.5C 107.5,492.5 190.5,492.5 273.5,492.5C 273.5,498.167 273.5,503.833 273.5,509.5C 184.5,509.5 95.5,509.5 6.5,509.5C 13.9209,389.431 21.5876,269.431 29.5,149.5 Z"/></g>
<g><path style="opacity:0.936" fill="#000000" d="M 111.5,149.5 C 154.833,149.5 198.167,149.5 241.5,149.5C 241.5,155.167 241.5,160.833 241.5,166.5C 198.167,166.5 154.833,166.5 111.5,166.5C 111.5,160.833 111.5,155.167 111.5,149.5 Z"/></g>
<g><path style="opacity:0.939" fill="#000000" d="M 283.5,149.5 C 297.247,148.862 310.747,149.529 324,151.5C 325.272,173.685 326.772,195.852 328.5,218C 328.325,219.658 327.658,220.991 326.5,222C 321.511,222.499 316.511,222.666 311.5,222.5C 310.249,203.817 308.916,185.15 307.5,166.5C 299.5,166.5 291.5,166.5 283.5,166.5C 283.5,160.833 283.5,155.167 283.5,149.5 Z"/></g>
<g><path style="opacity:0.93" fill="#000000" d="M 392.5,511.5 C 391.167,511.5 389.833,511.5 388.5,511.5C 378.986,504.817 369.153,498.484 359,492.5C 348.661,498.696 338.494,505.03 328.5,511.5C 327.5,511.5 326.5,511.5 325.5,511.5C 319.056,501.216 312.389,491.049 305.5,481C 292.856,481.763 280.189,482.597 267.5,483.5C 266.165,471.488 264.665,459.488 263,447.5C 252.868,442.564 242.368,438.397 231.5,435C 229.777,434.477 228.444,433.477 227.5,432C 231.267,420.865 234.934,409.698 238.5,398.5C 236.897,395.72 235.063,393.054 233,390.5C 226.122,383.957 219.622,377.124 213.5,370C 222.409,360.929 230.743,351.429 238.5,341.5C 234.462,329.895 230.962,318.228 228,306.5C 239.922,302.369 251.589,297.702 263,292.5C 264.585,280.155 266.251,267.821 268,255.5C 280.436,257.206 292.936,258.373 305.5,259C 312.624,248.586 319.624,238.086 326.5,227.5C 337.25,234.292 348.083,240.959 359,247.5C 369.498,240.583 380.165,233.916 391,227.5C 397.833,237.833 404.667,248.167 411.5,258.5C 412.5,258.833 413.5,259.167 414.5,259.5C 426.067,258.313 437.567,256.98 449,255.5C 451.005,268.218 453.172,280.884 455.5,293.5C 467.206,297.902 478.873,302.402 490.5,307C 486.308,318.575 482.308,330.242 478.5,342C 487.154,351.321 495.821,360.655 504.5,370C 495.821,379.345 487.154,388.679 478.5,398C 482.308,409.758 486.308,421.425 490.5,433C 478.707,437.648 466.874,442.148 455,446.5C 453.166,458.512 451.332,470.512 449.5,482.5C 447.833,482.833 446.167,483.167 444.5,483.5C 433.51,482.152 422.51,481.319 411.5,481C 404.769,490.971 398.436,501.137 392.5,511.5 Z M 331.5,251.5 C 340.61,256.558 349.61,261.892 358.5,267.5C 367.5,262.167 376.5,256.833 385.5,251.5C 391.401,259.623 397.068,267.956 402.5,276.5C 403.5,276.833 404.5,277.167 405.5,277.5C 415.169,276.266 424.835,275.433 434.5,275C 436.362,285.393 437.695,295.893 438.5,306.5C 448.781,309.372 458.781,313.039 468.5,317.5C 465.167,327.167 461.833,336.833 458.5,346.5C 466.017,354.183 473.35,362.016 480.5,370C 472.802,377.364 465.469,385.03 458.5,393C 462.334,403.002 465.667,413.169 468.5,423.5C 458.719,426.427 449.052,429.761 439.5,433.5C 437.751,443.829 436.084,454.162 434.5,464.5C 434,464.833 433.5,465.167 433,465.5C 422.871,464.003 412.705,463.17 402.5,463C 397.192,471.795 391.526,480.295 385.5,488.5C 376.665,482.915 367.665,477.581 358.5,472.5C 349.75,477.959 340.916,483.292 332,488.5C 326.043,480.087 320.21,471.587 314.5,463C 303.819,463.368 293.152,464.201 282.5,465.5C 281.575,454.69 279.908,444.023 277.5,433.5C 268.872,430.235 260.205,427.068 251.5,424C 250.484,423.481 249.818,422.647 249.5,421.5C 252.233,412.802 255.066,404.136 258,395.5C 258.667,394.167 258.667,392.833 258,391.5C 250.833,384.333 243.667,377.167 236.5,370C 244.413,362.591 251.746,354.758 258.5,346.5C 255.459,336.544 252.126,326.711 248.5,317C 258.205,313.598 267.872,310.098 277.5,306.5C 279.908,295.977 281.575,285.31 282.5,274.5C 293.167,275.667 303.834,276.501 314.5,277C 320.301,268.557 325.968,260.057 331.5,251.5 Z M 325.5,326.5 C 332.836,327.643 335.336,331.643 333,338.5C 328.199,342.749 323.866,342.416 320,337.5C 318.697,332.105 320.53,328.438 325.5,326.5 Z M 390.5,401.5 C 399.078,404.463 400.411,409.297 394.5,416C 386.83,417.327 383.33,414.161 384,406.5C 385.603,403.965 387.769,402.298 390.5,401.5 Z"/></g>
<g><path style="opacity:0.941" fill="#000000" d="M 408.5,307.5 C 413.239,310.731 417.572,314.564 421.5,319C 383.667,356.833 345.833,394.667 308,432.5C 304.333,428.833 300.667,425.167 297,421.5C 296.333,420.833 296.333,420.167 297,419.5C 334.368,382.299 371.535,344.965 408.5,307.5 Z"/></g>
<g><path style="opacity:0.934" fill="#000000" d="M 323.5,309.5 C 344.229,310.961 353.062,321.961 350,342.5C 341.512,358.663 329.012,362.829 312.5,355C 297.868,341.292 297.868,327.625 312.5,314C 316.053,311.879 319.72,310.379 323.5,309.5 Z M 325.5,326.5 C 320.53,328.438 318.697,332.105 320,337.5C 323.866,342.416 328.199,342.749 333,338.5C 335.336,331.643 332.836,327.643 325.5,326.5 Z"/></g>
<g><path style="opacity:0.895" fill="#000000" d="M 117.5,331.5 C 123.167,331.5 128.833,331.5 134.5,331.5C 134.5,337.167 134.5,342.833 134.5,348.5C 128.833,348.5 123.167,348.5 117.5,348.5C 117.5,342.833 117.5,337.167 117.5,331.5 Z"/></g>
<g><path style="opacity:0.895" fill="#000000" d="M 149.5,331.5 C 155.167,331.5 160.833,331.5 166.5,331.5C 166.5,337.167 166.5,342.833 166.5,348.5C 160.833,348.5 155.167,348.5 149.5,348.5C 149.5,342.833 149.5,337.167 149.5,331.5 Z"/></g>
<g><path style="opacity:0.895" fill="#000000" d="M 181.5,331.5 C 187.167,331.5 192.833,331.5 198.5,331.5C 198.5,337.167 198.5,342.833 198.5,348.5C 192.833,348.5 187.167,348.5 181.5,348.5C 181.5,342.833 181.5,337.167 181.5,331.5 Z"/></g>
<g><path style="opacity:0.927" fill="#000000" d="M 388.5,384.5 C 409.354,386.535 417.854,397.868 414,418.5C 406.757,432.584 395.591,437.084 380.5,432C 365.692,422.56 362.526,410.06 371,394.5C 375.669,388.921 381.502,385.588 388.5,384.5 Z M 390.5,401.5 C 387.769,402.298 385.603,403.965 384,406.5C 383.33,414.161 386.83,417.327 394.5,416C 400.411,409.297 399.078,404.463 390.5,401.5 Z"/></g>
</svg>
