<?xml version="1.0" encoding="UTF-8"?>
<!DOCTYPE svg PUBLIC "-//W3C//DTD SVG 1.1//EN" "http://www.w3.org/Graphics/SVG/1.1/DTD/svg11.dtd">
<svg xmlns="http://www.w3.org/2000/svg" version="1.1" width="512px" height="512px" style="shape-rendering:geometricPrecision; text-rendering:geometricPrecision; image-rendering:optimizeQuality; fill-rule:evenodd; clip-rule:evenodd" xmlns:xlink="http://www.w3.org/1999/xlink">
<g><path style="opacity:0.948" fill="#000000" d="M 3.5,-0.5 C 171.5,-0.5 339.5,-0.5 507.5,-0.5C 509.167,0.5 510.5,1.83333 511.5,3.5C 511.5,120.167 511.5,236.833 511.5,353.5C 509.182,370.304 501.515,384.137 488.5,395C 484.952,396.941 481.286,398.607 477.5,400C 406.525,401.474 335.525,401.974 264.5,401.5C 264.667,436.502 264.5,471.502 264,506.5C 262.975,508.687 261.475,510.354 259.5,511.5C 174.167,511.5 88.8333,511.5 3.5,511.5C 1.83333,510.5 0.5,509.167 -0.5,507.5C -0.5,339.5 -0.5,171.5 -0.5,3.5C 0.5,1.83333 1.83333,0.5 3.5,-0.5 Z M 17.5,17.5 C 93.8333,17.5 170.167,17.5 246.5,17.5C 246.5,105.167 246.5,192.833 246.5,280.5C 207.438,274.263 184.938,290.597 179,329.5C 176.493,349.303 180.493,367.636 191,384.5C 196.524,392.006 203.691,397.173 212.5,400C 223.794,401.293 235.127,401.793 246.5,401.5C 246.5,432.167 246.5,462.833 246.5,493.5C 170.167,493.5 93.8333,493.5 17.5,493.5C 17.5,334.833 17.5,176.167 17.5,17.5 Z M 272.5,17.5 C 283.833,17.5 295.167,17.5 306.5,17.5C 307.097,22.6619 310.097,25.3285 315.5,25.5C 320.181,24.9833 323.181,22.4833 324.5,18C 335.495,17.5002 346.495,17.3335 357.5,17.5C 358.234,22.5613 361.234,25.228 366.5,25.5C 371.21,25.3169 374.21,22.9836 375.5,18.5C 386.485,17.3342 397.485,17.1676 408.5,18C 411.508,25.0597 416.508,26.8931 423.5,23.5C 425.415,21.9288 426.415,19.9288 426.5,17.5C 437.833,17.5 449.167,17.5 460.5,17.5C 460.834,22.6642 463.667,25.3309 469,25.5C 474.184,25.1822 477.018,22.5155 477.5,17.5C 482.833,17.5 488.167,17.5 493.5,17.5C 493.5,22.8333 493.5,28.1667 493.5,33.5C 488.332,34.1187 485.665,37.1187 485.5,42.5C 485.844,47.5109 488.511,50.1775 493.5,50.5C 493.5,61.8333 493.5,73.1667 493.5,84.5C 486.249,86.672 484.083,91.3386 487,98.5C 488.509,100.919 490.675,101.919 493.5,101.5C 493.5,112.833 493.5,124.167 493.5,135.5C 485.688,138.128 483.688,143.128 487.5,150.5C 489.179,151.782 491.013,152.782 493,153.5C 493.832,164.515 493.666,175.515 492.5,186.5C 485.467,189.777 483.801,194.777 487.5,201.5C 489.001,202.752 490.668,203.752 492.5,204.5C 493.666,215.485 493.832,226.485 493,237.5C 485.731,240.374 483.731,245.374 487,252.5C 488.734,254.451 490.901,255.451 493.5,255.5C 493.667,267.171 493.5,278.838 493,290.5C 487.271,285.552 480.771,282.052 473.5,280C 475.333,279.5 476.5,278.333 477,276.5C 478.597,265.428 474.097,261.595 463.5,265C 458.208,270.05 458.208,275.05 463.5,280C 449.833,280.667 436.167,280.667 422.5,280C 426.277,277.089 427.444,273.256 426,268.5C 423.459,263.931 419.625,262.431 414.5,264C 407.529,268.551 406.862,273.884 412.5,280C 398.833,280.667 385.167,280.667 371.5,280C 376.427,275.4 376.76,270.4 372.5,265C 362.109,261.719 357.276,265.553 358,276.5C 358.833,278 360,279.167 361.5,280C 347.833,280.667 334.167,280.667 320.5,280C 325.338,275.48 325.671,270.647 321.5,265.5C 315.741,262.156 310.908,263.156 307,268.5C 306.333,271.167 306.333,273.833 307,276.5C 307.5,278.333 308.667,279.5 310.5,280C 296.833,280.667 283.167,280.667 269.5,280C 274.886,274.357 274.552,269.024 268.5,264C 267.207,263.51 265.873,263.343 264.5,263.5C 264.333,252.495 264.5,241.495 265,230.5C 270.248,229.509 273.081,226.342 273.5,221C 272.891,215.556 269.891,212.723 264.5,212.5C 264.5,201.167 264.5,189.833 264.5,178.5C 269.891,178.277 272.891,175.444 273.5,170C 273.081,164.658 270.248,161.491 265,160.5C 264.5,149.505 264.333,138.505 264.5,127.5C 269.563,126.939 272.563,124.105 273.5,119C 273.05,113.919 270.384,110.752 265.5,109.5C 264.501,98.5202 264.168,87.5202 264.5,76.5C 272.283,74.7424 274.783,70.0757 272,62.5C 270.117,59.9756 267.617,58.6423 264.5,58.5C 264.168,47.4798 264.501,36.4798 265.5,25.5C 269.98,24.688 272.313,22.0213 272.5,17.5 Z M 219.5,298.5 C 292.167,298.333 364.834,298.5 437.5,299C 421.539,326.862 421.539,354.696 437.5,382.5C 401.5,382.833 365.5,383.167 329.5,383.5C 291.796,383.651 254.129,383.151 216.5,382C 206.482,375.962 200.315,367.129 198,355.5C 193.536,335.794 197.703,318.294 210.5,303C 213.324,300.921 216.324,299.421 219.5,298.5 Z M 466.5,298.5 C 475.262,298.799 481.762,302.799 486,310.5C 496.292,331.362 495.958,352.028 485,372.5C 473.583,386.046 462.583,385.713 452,371.5C 441.592,352.498 440.925,333.164 450,313.5C 453.822,306.504 459.322,301.504 466.5,298.5 Z"/></g>
<g><path style="opacity:0.875" fill="#000000" d="M 288.5,32.5 C 296.511,33.3397 299.678,37.673 298,45.5C 297.215,47.286 296.049,48.786 294.5,50C 284.982,52.5219 280.482,49.0219 281,39.5C 282.767,36.228 285.267,33.8947 288.5,32.5 Z"/></g>
<g><path style="opacity:0.878" fill="#000000" d="M 339.5,32.5 C 347.965,33.4777 351.132,38.1444 349,46.5C 345.692,50.3271 341.526,51.4937 336.5,50C 329.568,42.9321 330.568,37.0988 339.5,32.5 Z"/></g>
<g><path style="opacity:0.886" fill="#000000" d="M 391.5,32.5 C 400.203,34.3442 402.87,39.3442 399.5,47.5C 394.017,51.7604 388.85,51.4271 384,46.5C 381.684,39.0327 384.184,34.3661 391.5,32.5 Z"/></g>
<g><path style="opacity:0.882" fill="#000000" d="M 442.5,32.5 C 451.615,34.664 454.115,39.9974 450,48.5C 444.401,51.6943 439.401,51.0276 435,46.5C 433.101,39.2907 435.601,34.624 442.5,32.5 Z"/></g>
<g><path style="opacity:0.868" fill="#000000" d="M 312.5,58.5 C 321.399,58.2254 325.065,62.3921 323.5,71C 320.948,75.9385 316.948,77.6052 311.5,76C 306.845,73.1034 305.345,68.9367 307,63.5C 308.73,61.5981 310.563,59.9314 312.5,58.5 Z"/></g>
<g><path style="opacity:0.868" fill="#000000" d="M 363.5,58.5 C 374.088,58.6769 377.421,63.6769 373.5,73.5C 367.673,77.8898 362.507,77.2231 358,71.5C 356.571,65.7001 358.404,61.3668 363.5,58.5 Z"/></g>
<g><path style="opacity:0.868" fill="#000000" d="M 415.5,58.5 C 424.693,58.2148 428.193,62.5481 426,71.5C 422.211,76.881 417.378,77.881 411.5,74.5C 406.916,67.6726 408.249,62.3392 415.5,58.5 Z"/></g>
<g><path style="opacity:0.871" fill="#000000" d="M 466.5,58.5 C 475.649,58.1562 479.149,62.4896 477,71.5C 474.459,76.0685 470.625,77.5685 465.5,76C 460.401,73.096 458.901,68.9293 461,63.5C 462.352,61.251 464.185,59.5844 466.5,58.5 Z"/></g>
<g><path style="opacity:0.878" fill="#000000" d="M 285.5,84.5 C 295.659,83.1581 299.826,87.4914 298,97.5C 292.911,103.408 287.577,103.741 282,98.5C 279.78,92.9911 280.947,88.3244 285.5,84.5 Z"/></g>
<g><path style="opacity:0.879" fill="#000000" d="M 337.5,84.5 C 349.843,84.5286 352.843,89.8619 346.5,100.5C 338.597,103.81 333.597,101.31 331.5,93C 332.187,89.1604 334.187,86.3271 337.5,84.5 Z"/></g>
<g><path style="opacity:0.883" fill="#000000" d="M 388.5,84.5 C 400.326,84.3301 403.659,89.4967 398.5,100C 393.879,103.351 389.379,103.184 385,99.5C 382.206,93.4076 383.373,88.4076 388.5,84.5 Z"/></g>
<g><path style="opacity:0.882" fill="#000000" d="M 439.5,84.5 C 446.899,82.8562 451.232,85.6895 452.5,93C 450.446,101.3 445.446,103.8 437.5,100.5C 433.082,94.509 433.749,89.1757 439.5,84.5 Z"/></g>
<g><path style="opacity:0.871" fill="#000000" d="M 313.5,109.5 C 323.345,110.357 326.345,115.357 322.5,124.5C 319.376,127.356 315.709,128.189 311.5,127C 306.931,124.459 305.431,120.625 307,115.5C 308.436,112.558 310.603,110.558 313.5,109.5 Z"/></g>
<g><path style="opacity:0.865" fill="#000000" d="M 364.5,109.5 C 372.491,109.654 375.991,113.654 375,121.5C 372.646,127.095 368.479,128.928 362.5,127C 357.931,124.459 356.431,120.625 358,115.5C 359.494,112.686 361.66,110.686 364.5,109.5 Z"/></g>
<g><path style="opacity:0.865" fill="#000000" d="M 415.5,109.5 C 424.237,109.65 427.737,113.984 426,122.5C 423.103,127.155 418.937,128.655 413.5,127C 408.043,123.04 407.209,118.207 411,112.5C 412.652,111.601 414.152,110.601 415.5,109.5 Z"/></g>
<g><path style="opacity:0.882" fill="#000000" d="M 467.5,109.5 C 476.017,109.855 479.183,114.188 477,122.5C 474.103,127.155 469.937,128.655 464.5,127C 457.588,119.885 458.588,114.052 467.5,109.5 Z"/></g>
<g><path style="opacity:0.871" fill="#000000" d="M 286.5,135.5 C 296.157,134.658 299.99,138.991 298,148.5C 293.003,154.585 287.67,154.919 282,149.5C 279.606,143.517 281.106,138.851 286.5,135.5 Z"/></g>
<g><path style="opacity:0.874" fill="#000000" d="M 337.5,135.5 C 347.157,134.658 350.99,138.991 349,148.5C 344.098,154.742 338.764,155.075 333,149.5C 330.988,143.703 332.488,139.036 337.5,135.5 Z"/></g>
<g><path style="opacity:0.878" fill="#000000" d="M 388.5,135.5 C 395.631,134.14 399.964,136.974 401.5,144C 398.938,153.412 393.438,155.579 385,150.5C 382.206,144.408 383.373,139.408 388.5,135.5 Z"/></g>
<g><path style="opacity:0.868" fill="#000000" d="M 439.5,135.5 C 450.129,134.627 453.962,139.294 451,149.5C 446.351,154.406 441.351,154.74 436,150.5C 433.204,144.452 434.371,139.452 439.5,135.5 Z"/></g>
<g><path style="opacity:0.882" fill="#000000" d="M 314.5,160.5 C 323.615,162.664 326.115,167.997 322,176.5C 316.401,179.694 311.401,179.028 307,174.5C 305.101,167.291 307.601,162.624 314.5,160.5 Z"/></g>
<g><path style="opacity:0.875" fill="#000000" d="M 365.5,160.5 C 374.532,161.891 377.365,166.891 374,175.5C 370.662,178.318 366.829,179.151 362.5,178C 356.883,174.135 356.049,169.302 360,163.5C 361.876,162.391 363.709,161.391 365.5,160.5 Z"/></g>
<g><path style="opacity:0.875" fill="#000000" d="M 416.5,160.5 C 424.511,161.34 427.678,165.673 426,173.5C 425.215,175.286 424.049,176.786 422.5,178C 412.982,180.522 408.482,177.022 409,167.5C 410.767,164.228 413.267,161.895 416.5,160.5 Z"/></g>
<g><path style="opacity:0.878" fill="#000000" d="M 467.5,160.5 C 475.965,161.478 479.132,166.144 477,174.5C 473.692,178.327 469.526,179.494 464.5,178C 457.568,170.932 458.568,165.099 467.5,160.5 Z"/></g>
<g><path style="opacity:0.867" fill="#000000" d="M 287.5,186.5 C 296.693,186.215 300.193,190.548 298,199.5C 294.211,204.881 289.378,205.881 283.5,202.5C 278.916,195.673 280.249,190.339 287.5,186.5 Z"/></g>
<g><path style="opacity:0.871" fill="#000000" d="M 338.5,186.5 C 347.649,186.156 351.149,190.49 349,199.5C 346.459,204.069 342.625,205.569 337.5,204C 332.401,201.096 330.901,196.929 333,191.5C 334.352,189.251 336.185,187.584 338.5,186.5 Z"/></g>
<g><path style="opacity:0.872" fill="#000000" d="M 389.5,186.5 C 399.348,186.506 402.848,191.173 400,200.5C 396.95,204.13 393.117,205.297 388.5,204C 383.845,201.103 382.345,196.937 384,191.5C 385.406,189.256 387.239,187.59 389.5,186.5 Z"/></g>
<g><path style="opacity:0.868" fill="#000000" d="M 440.5,186.5 C 449.399,186.225 453.065,190.392 451.5,199C 448.948,203.939 444.948,205.605 439.5,204C 434.845,201.103 433.345,196.937 435,191.5C 436.73,189.598 438.563,187.931 440.5,186.5 Z"/></g>
<g><path style="opacity:0.882" fill="#000000" d="M 311.5,212.5 C 318.899,210.856 323.232,213.69 324.5,221C 322.446,229.3 317.446,231.8 309.5,228.5C 305.082,222.509 305.749,217.176 311.5,212.5 Z"/></g>
<g><path style="opacity:0.875" fill="#000000" d="M 362.5,212.5 C 372.139,210.974 376.306,214.974 375,224.5C 370.365,231.163 365.031,231.829 359,226.5C 356.437,220.866 357.604,216.199 362.5,212.5 Z"/></g>
<g><path style="opacity:0.878" fill="#000000" d="M 413.5,212.5 C 423.659,211.158 427.826,215.491 426,225.5C 420.911,231.408 415.577,231.741 410,226.5C 407.78,220.991 408.947,216.324 413.5,212.5 Z"/></g>
<g><path style="opacity:0.879" fill="#000000" d="M 465.5,212.5 C 477.843,212.529 480.843,217.862 474.5,228.5C 466.597,231.81 461.597,229.31 459.5,221C 460.187,217.16 462.187,214.327 465.5,212.5 Z"/></g>
<g><path style="opacity:0.865" fill="#000000" d="M 287.5,237.5 C 296.237,237.65 299.737,241.984 298,250.5C 295.103,255.155 290.937,256.655 285.5,255C 280.043,251.04 279.209,246.207 283,240.5C 284.652,239.601 286.152,238.601 287.5,237.5 Z"/></g>
<g><path style="opacity:0.882" fill="#000000" d="M 339.5,237.5 C 348.017,237.855 351.183,242.188 349,250.5C 346.103,255.155 341.937,256.655 336.5,255C 329.588,247.885 330.588,242.052 339.5,237.5 Z"/></g>
<g><path style="opacity:0.879" fill="#000000" d="M 390.5,237.5 C 399.411,238.33 402.578,242.997 400,251.5C 394.667,256.833 389.333,256.833 384,251.5C 381.746,244.576 383.913,239.909 390.5,237.5 Z"/></g>
<g><path style="opacity:0.872" fill="#000000" d="M 441.5,237.5 C 451.345,238.357 454.345,243.357 450.5,252.5C 447.376,255.356 443.709,256.189 439.5,255C 434.931,252.459 433.431,248.625 435,243.5C 436.436,240.558 438.603,238.558 441.5,237.5 Z"/></g>
</svg>
